<mxfile host="65bd71144e">
    <diagram id="8Pd3VJI2SFMRkJ6or38w" name="スレッド一覧画面">
        <mxGraphModel dx="1103" dy="572" grid="1" gridSize="10" guides="1" tooltips="1" connect="1" arrows="1" fold="1" page="1" pageScale="1" pageWidth="827" pageHeight="1169" math="0" shadow="0">
            <root>
                <mxCell id="0"/>
                <mxCell id="1" parent="0"/>
                <mxCell id="16" value="" style="rounded=0;whiteSpace=wrap;html=1;" parent="1" vertex="1">
                    <mxGeometry x="57" y="120" width="720" height="500" as="geometry"/>
                </mxCell>
                <mxCell id="10" value="スレッド作成" style="strokeWidth=1;shadow=0;dashed=0;align=center;html=1;shape=mxgraph.mockup.buttons.button;strokeColor=#BD7000;fontColor=#000000;mainText=;buttonStyle=round;fontSize=17;fontStyle=1;fillColor=#f0a30a;whiteSpace=wrap;" parent="1" vertex="1">
                    <mxGeometry x="597" y="160" width="150" height="50" as="geometry"/>
                </mxCell>
                <mxCell id="11" value="&lt;&lt; Prev 1 2 3 4 5 6 7 8 9 10 Next &gt;&gt;" style="strokeWidth=1;shadow=0;dashed=0;align=center;html=1;shape=mxgraph.mockup.navigation.pagination;linkText=;fontSize=17;fontColor=#0000ff;fontStyle=4;" parent="1" vertex="1">
                    <mxGeometry x="277" y="570" width="350" height="30" as="geometry"/>
                </mxCell>
                <mxCell id="12" value="1.今日のお昼ご飯を報告するスレ(123)" style="shape=rectangle;strokeColor=none;fillColor=none;linkText=;fontSize=17;fontColor=#0000ff;fontStyle=4;html=1;align=left;" parent="1" vertex="1">
                    <mxGeometry x="97" y="260" width="370" height="30" as="geometry"/>
                </mxCell>
                <mxCell id="13" value="2.雑談スレ(345)" style="shape=rectangle;strokeColor=none;fillColor=none;linkText=;fontSize=17;fontColor=#0000ff;fontStyle=4;html=1;align=left;" parent="1" vertex="1">
                    <mxGeometry x="97" y="300" width="370" height="30" as="geometry"/>
                </mxCell>
                <mxCell id="18" value="3.技術Tipsスレ(33)" style="shape=rectangle;strokeColor=none;fillColor=none;linkText=;fontSize=17;fontColor=#0000ff;fontStyle=4;html=1;align=left;" parent="1" vertex="1">
                    <mxGeometry x="97" y="340" width="370" height="30" as="geometry"/>
                </mxCell>
                <mxCell id="20" value="4.掲示板利用の仕方(3)" style="shape=rectangle;strokeColor=none;fillColor=none;linkText=;fontSize=17;fontColor=#0000ff;fontStyle=4;html=1;align=left;" parent="1" vertex="1">
                    <mxGeometry x="97" y="380" width="370" height="30" as="geometry"/>
                </mxCell>
                <mxCell id="23" value="" style="endArrow=none;html=1;entryX=0.958;entryY=0.338;entryDx=0;entryDy=0;entryPerimeter=0;" parent="1" edge="1">
                    <mxGeometry width="50" height="50" relative="1" as="geometry">
                        <mxPoint x="97" y="332" as="sourcePoint"/>
                        <mxPoint x="745.76" y="330" as="targetPoint"/>
                    </mxGeometry>
                </mxCell>
                <mxCell id="24" value="" style="endArrow=none;html=1;entryX=0.958;entryY=0.338;entryDx=0;entryDy=0;entryPerimeter=0;" parent="1" edge="1">
                    <mxGeometry width="50" height="50" relative="1" as="geometry">
                        <mxPoint x="97" y="372" as="sourcePoint"/>
                        <mxPoint x="745.76" y="370" as="targetPoint"/>
                    </mxGeometry>
                </mxCell>
                <mxCell id="25" value="" style="endArrow=none;html=1;entryX=0.958;entryY=0.338;entryDx=0;entryDy=0;entryPerimeter=0;" parent="1" edge="1">
                    <mxGeometry width="50" height="50" relative="1" as="geometry">
                        <mxPoint x="97" y="412" as="sourcePoint"/>
                        <mxPoint x="745.76" y="410" as="targetPoint"/>
                    </mxGeometry>
                </mxCell>
                <mxCell id="26" value="2022-11-26" style="text;html=1;strokeColor=none;fillColor=none;align=center;verticalAlign=middle;whiteSpace=wrap;rounded=0;" parent="1" vertex="1">
                    <mxGeometry x="637" y="260" width="90" height="30" as="geometry"/>
                </mxCell>
                <mxCell id="27" value="2022-11-25" style="text;html=1;strokeColor=none;fillColor=none;align=center;verticalAlign=middle;whiteSpace=wrap;rounded=0;" parent="1" vertex="1">
                    <mxGeometry x="637" y="300" width="90" height="30" as="geometry"/>
                </mxCell>
                <mxCell id="28" value="2022-11-24" style="text;html=1;strokeColor=none;fillColor=none;align=center;verticalAlign=middle;whiteSpace=wrap;rounded=0;" parent="1" vertex="1">
                    <mxGeometry x="637" y="340" width="90" height="30" as="geometry"/>
                </mxCell>
                <mxCell id="29" value="2022-11-23" style="text;html=1;strokeColor=none;fillColor=none;align=center;verticalAlign=middle;whiteSpace=wrap;rounded=0;" parent="1" vertex="1">
                    <mxGeometry x="637" y="380" width="90" height="30" as="geometry"/>
                </mxCell>
                <mxCell id="31" value="" style="endArrow=none;html=1;entryX=0.958;entryY=0.338;entryDx=0;entryDy=0;entryPerimeter=0;" parent="1" edge="1">
                    <mxGeometry width="50" height="50" relative="1" as="geometry">
                        <mxPoint x="97" y="292" as="sourcePoint"/>
                        <mxPoint x="745.76" y="290" as="targetPoint"/>
                    </mxGeometry>
                </mxCell>
            </root>
        </mxGraphModel>
    </diagram>
    <diagram id="LILmuL-a33x_-pJNfV9J" name="スレッド作成画面">
        <mxGraphModel dx="1103" dy="572" grid="1" gridSize="10" guides="1" tooltips="1" connect="1" arrows="1" fold="1" page="1" pageScale="1" pageWidth="827" pageHeight="1169" math="0" shadow="0">
            <root>
                <mxCell id="zJ0xUhliGnv5ettBp_kz-0"/>
                <mxCell id="zJ0xUhliGnv5ettBp_kz-1" parent="zJ0xUhliGnv5ettBp_kz-0"/>
                <mxCell id="oO5eRcdLeLqtk0xJ01wv-0" value="" style="rounded=0;whiteSpace=wrap;html=1;" parent="zJ0xUhliGnv5ettBp_kz-1" vertex="1">
                    <mxGeometry x="54" y="120" width="720" height="500" as="geometry"/>
                </mxCell>
                <mxCell id="WfcUNI_9EaJ6T-Bv0PUf-9" value="委員会活動あれこれスレ" style="strokeWidth=1;shadow=0;dashed=0;align=center;html=1;shape=mxgraph.mockup.forms.rrect;fillColor=#ffffff;rSize=0;fontColor=#666666;align=left;spacingLeft=3;strokeColor=#999999;fontSize=24;verticalAlign=top;" parent="zJ0xUhliGnv5ettBp_kz-1" vertex="1">
                    <mxGeometry x="90" y="188" width="650" height="90" as="geometry"/>
                </mxCell>
                <mxCell id="WfcUNI_9EaJ6T-Bv0PUf-10" value="1コメ" style="strokeWidth=1;shadow=0;dashed=0;align=center;html=1;shape=mxgraph.mockup.forms.rrect;fillColor=#ffffff;rSize=0;fontColor=#666666;align=left;spacingLeft=3;strokeColor=#999999;verticalAlign=top;whiteSpace=wrap;fontSize=24;" parent="zJ0xUhliGnv5ettBp_kz-1" vertex="1">
                    <mxGeometry x="90" y="370" width="650" height="190" as="geometry"/>
                </mxCell>
                <mxCell id="dPrcT94ESFmLmk0_2O2b-1" value="&lt;b&gt;スレッドのタイトル&lt;/b&gt;" style="text;html=1;strokeColor=none;fillColor=none;align=left;verticalAlign=middle;whiteSpace=wrap;rounded=0;fontSize=24;" parent="zJ0xUhliGnv5ettBp_kz-1" vertex="1">
                    <mxGeometry x="90" y="158" width="230" height="30" as="geometry"/>
                </mxCell>
                <mxCell id="dPrcT94ESFmLmk0_2O2b-2" value="&lt;b&gt;最初の投稿&lt;/b&gt;" style="text;html=1;strokeColor=none;fillColor=none;align=left;verticalAlign=middle;whiteSpace=wrap;rounded=0;fontSize=24;" parent="zJ0xUhliGnv5ettBp_kz-1" vertex="1">
                    <mxGeometry x="90" y="330" width="230" height="30" as="geometry"/>
                </mxCell>
                <mxCell id="21FmeOSP8GboF76t-Men-0" value="作成" style="strokeWidth=1;shadow=0;dashed=0;align=center;html=1;shape=mxgraph.mockup.buttons.button;strokeColor=#666666;fontColor=#ffffff;mainText=;buttonStyle=round;fontSize=17;fontStyle=1;fillColor=#008cff;whiteSpace=wrap;" parent="zJ0xUhliGnv5ettBp_kz-1" vertex="1">
                    <mxGeometry x="630" y="570" width="110" height="30" as="geometry"/>
                </mxCell>
                <mxCell id="e63CtrOWbs9T3AgIWhr3-0" value="" style="rounded=0;whiteSpace=wrap;html=1;" parent="zJ0xUhliGnv5ettBp_kz-1" vertex="1">
                    <mxGeometry x="630" y="330" width="110" height="30" as="geometry"/>
                </mxCell>
                <mxCell id="e63CtrOWbs9T3AgIWhr3-1" value="名前：" style="text;html=1;strokeColor=none;fillColor=none;align=center;verticalAlign=middle;whiteSpace=wrap;rounded=0;" parent="zJ0xUhliGnv5ettBp_kz-1" vertex="1">
                    <mxGeometry x="570" y="330" width="60" height="30" as="geometry"/>
                </mxCell>
            </root>
        </mxGraphModel>
    </diagram>
    <diagram id="-yyVGVr-ncAe6FMeUFvx" name="スレッド画面">
        <mxGraphModel dx="1103" dy="572" grid="1" gridSize="10" guides="1" tooltips="1" connect="1" arrows="1" fold="1" page="1" pageScale="1" pageWidth="827" pageHeight="1169" math="0" shadow="0">
            <root>
                <mxCell id="dZ1eXoiCUFKYRf-jwyLt-0"/>
                <mxCell id="dZ1eXoiCUFKYRf-jwyLt-1" parent="dZ1eXoiCUFKYRf-jwyLt-0"/>
                <mxCell id="ttvjQxHA2_RfWpUFzpj5-0" value="" style="rounded=0;whiteSpace=wrap;html=1;" parent="dZ1eXoiCUFKYRf-jwyLt-1" vertex="1">
                    <mxGeometry x="10" y="30" width="720" height="580" as="geometry"/>
                </mxCell>
                <mxCell id="lix6A9lDBkecOrND8pGS-1" value="&lt;h1 style=&quot;font-size: 24px;&quot;&gt;&lt;span style=&quot;color: rgb(0, 0, 255); font-family: helvetica; font-size: 24px; text-align: left;&quot;&gt;1.今日のお昼ご飯を報告するスレ&lt;/span&gt;&lt;/h1&gt;" style="text;html=1;strokeColor=none;fillColor=none;align=center;verticalAlign=middle;whiteSpace=wrap;rounded=0;fontSize=24;" parent="dZ1eXoiCUFKYRf-jwyLt-1" vertex="1">
                    <mxGeometry x="100" y="60" width="360" height="30" as="geometry"/>
                </mxCell>
                <mxCell id="dZ1eXoiCUFKYRf-jwyLt-3" value="1 名前：ななし ：2020/12/24(水) 13:00:00" style="text;html=1;strokeColor=none;fillColor=none;align=left;verticalAlign=middle;whiteSpace=wrap;rounded=0;" parent="dZ1eXoiCUFKYRf-jwyLt-1" vertex="1">
                    <mxGeometry x="100" y="110" width="450" height="20" as="geometry"/>
                </mxCell>
                <mxCell id="dZ1eXoiCUFKYRf-jwyLt-4" value="&lt;blockquote style=&quot;margin: 0 0 0 40px ; border: none ; padding: 0px&quot;&gt;今日のお昼ご飯は、丸亀製麺の肉うどんでした。&lt;/blockquote&gt;" style="text;html=1;strokeColor=none;fillColor=none;align=left;verticalAlign=middle;whiteSpace=wrap;rounded=0;" parent="dZ1eXoiCUFKYRf-jwyLt-1" vertex="1">
                    <mxGeometry x="100" y="130" width="450" height="20" as="geometry"/>
                </mxCell>
                <mxCell id="dZ1eXoiCUFKYRf-jwyLt-5" value="2 名前：ななし ：2020/12/25(木) 13:00:00" style="text;html=1;strokeColor=none;fillColor=none;align=left;verticalAlign=middle;whiteSpace=wrap;rounded=0;" parent="dZ1eXoiCUFKYRf-jwyLt-1" vertex="1">
                    <mxGeometry x="100" y="190" width="450" height="20" as="geometry"/>
                </mxCell>
                <mxCell id="dZ1eXoiCUFKYRf-jwyLt-6" value="&lt;blockquote style=&quot;margin: 0 0 0 40px ; border: none ; padding: 0px&quot;&gt;今日のお昼ご飯は、ラーメンだった。&lt;/blockquote&gt;" style="text;html=1;strokeColor=none;fillColor=none;align=left;verticalAlign=middle;whiteSpace=wrap;rounded=0;" parent="dZ1eXoiCUFKYRf-jwyLt-1" vertex="1">
                    <mxGeometry x="100" y="210" width="450" height="20" as="geometry"/>
                </mxCell>
                <mxCell id="dZ1eXoiCUFKYRf-jwyLt-7" value="3 名前：ななし ：2022/12/25(木) 13:00:00" style="text;html=1;strokeColor=none;fillColor=none;align=left;verticalAlign=middle;whiteSpace=wrap;rounded=0;" parent="dZ1eXoiCUFKYRf-jwyLt-1" vertex="1">
                    <mxGeometry x="100" y="270" width="450" height="20" as="geometry"/>
                </mxCell>
                <mxCell id="dZ1eXoiCUFKYRf-jwyLt-8" value="&lt;blockquote style=&quot;margin: 0 0 0 40px ; border: none ; padding: 0px&quot;&gt;&amp;gt;&amp;gt;2 糖尿病気を付けて&lt;/blockquote&gt;" style="text;html=1;strokeColor=none;fillColor=none;align=left;verticalAlign=middle;whiteSpace=wrap;rounded=0;" parent="dZ1eXoiCUFKYRf-jwyLt-1" vertex="1">
                    <mxGeometry x="100" y="290" width="450" height="20" as="geometry"/>
                </mxCell>
                <mxCell id="dZ1eXoiCUFKYRf-jwyLt-9" value="4 名前：ななし ：2022/12/25(木) 14:00:00" style="text;html=1;strokeColor=none;fillColor=none;align=left;verticalAlign=middle;whiteSpace=wrap;rounded=0;" parent="dZ1eXoiCUFKYRf-jwyLt-1" vertex="1">
                    <mxGeometry x="100" y="350" width="450" height="20" as="geometry"/>
                </mxCell>
                <mxCell id="dZ1eXoiCUFKYRf-jwyLt-10" value="&lt;blockquote style=&quot;margin: 0 0 0 40px ; border: none ; padding: 0px&quot;&gt;今日はローソンの冷凍パスタ&lt;/blockquote&gt;" style="text;html=1;strokeColor=none;fillColor=none;align=left;verticalAlign=middle;whiteSpace=wrap;rounded=0;" parent="dZ1eXoiCUFKYRf-jwyLt-1" vertex="1">
                    <mxGeometry x="100" y="370" width="450" height="20" as="geometry"/>
                </mxCell>
                <mxCell id="dZ1eXoiCUFKYRf-jwyLt-11" value="投稿する" style="strokeWidth=1;shadow=0;dashed=0;align=center;html=1;shape=mxgraph.mockup.buttons.button;strokeColor=#666666;fontColor=#ffffff;mainText=;buttonStyle=round;fontSize=17;fontStyle=1;fillColor=#008cff;whiteSpace=wrap;" parent="dZ1eXoiCUFKYRf-jwyLt-1" vertex="1">
                    <mxGeometry x="100" y="470" width="110" height="30" as="geometry"/>
                </mxCell>
                <mxCell id="dZ1eXoiCUFKYRf-jwyLt-12" value="" style="rounded=0;whiteSpace=wrap;html=1;" parent="dZ1eXoiCUFKYRf-jwyLt-1" vertex="1">
                    <mxGeometry x="280" y="470" width="110" height="30" as="geometry"/>
                </mxCell>
                <mxCell id="dZ1eXoiCUFKYRf-jwyLt-13" value="名前：" style="text;html=1;strokeColor=none;fillColor=none;align=center;verticalAlign=middle;whiteSpace=wrap;rounded=0;" parent="dZ1eXoiCUFKYRf-jwyLt-1" vertex="1">
                    <mxGeometry x="220" y="470" width="60" height="30" as="geometry"/>
                </mxCell>
                <mxCell id="dZ1eXoiCUFKYRf-jwyLt-14" value="" style="rounded=0;whiteSpace=wrap;html=1;" parent="dZ1eXoiCUFKYRf-jwyLt-1" vertex="1">
                    <mxGeometry x="110" y="510" width="480" height="80" as="geometry"/>
                </mxCell>
                <mxCell id="OPlxFv2UHIogsX2CNmeI-0" value="返信する" style="shape=rectangle;strokeColor=none;fillColor=none;linkText=;fontSize=12;fontColor=#0000ff;fontStyle=4;html=1;align=center;" parent="dZ1eXoiCUFKYRf-jwyLt-1" vertex="1">
                    <mxGeometry x="100" y="150" width="110" height="20" as="geometry"/>
                </mxCell>
                <mxCell id="EZcSOQZUPjbyHAefFf9M-0" value="いいね！" style="strokeWidth=1;shadow=0;dashed=0;align=center;html=1;shape=mxgraph.mockup.buttons.button;strokeColor=#d6b656;mainText=;buttonStyle=round;fontSize=9;fontStyle=1;fillColor=#fff2cc;whiteSpace=wrap;" parent="dZ1eXoiCUFKYRf-jwyLt-1" vertex="1">
                    <mxGeometry x="190" y="152.5" width="50" height="15" as="geometry"/>
                </mxCell>
                <mxCell id="ZBdVfRGoA1n-d0HIqNgc-0" value="返信する" style="shape=rectangle;strokeColor=none;fillColor=none;linkText=;fontSize=12;fontColor=#0000ff;fontStyle=4;html=1;align=center;" parent="dZ1eXoiCUFKYRf-jwyLt-1" vertex="1">
                    <mxGeometry x="100" y="230" width="110" height="20" as="geometry"/>
                </mxCell>
                <mxCell id="ZBdVfRGoA1n-d0HIqNgc-1" value="返信する" style="shape=rectangle;strokeColor=none;fillColor=none;linkText=;fontSize=12;fontColor=#0000ff;fontStyle=4;html=1;align=center;" parent="dZ1eXoiCUFKYRf-jwyLt-1" vertex="1">
                    <mxGeometry x="100" y="310" width="110" height="20" as="geometry"/>
                </mxCell>
                <mxCell id="ZBdVfRGoA1n-d0HIqNgc-2" value="返信する" style="shape=rectangle;strokeColor=none;fillColor=none;linkText=;fontSize=12;fontColor=#0000ff;fontStyle=4;html=1;align=center;" parent="dZ1eXoiCUFKYRf-jwyLt-1" vertex="1">
                    <mxGeometry x="100" y="390" width="110" height="20" as="geometry"/>
                </mxCell>
                <mxCell id="ZBdVfRGoA1n-d0HIqNgc-4" value="" style="aspect=fixed;html=1;points=[];align=center;image;fontSize=12;image=img/lib/azure2/general/Heart.svg;" parent="dZ1eXoiCUFKYRf-jwyLt-1" vertex="1">
                    <mxGeometry x="339.33" y="152.5" width="18.66" height="17.5" as="geometry"/>
                </mxCell>
                <mxCell id="EZcSOQZUPjbyHAefFf9M-1" value="5" style="text;html=1;strokeColor=none;fillColor=none;align=center;verticalAlign=middle;whiteSpace=wrap;rounded=0;fontSize=16;" parent="dZ1eXoiCUFKYRf-jwyLt-1" vertex="1">
                    <mxGeometry x="360" y="150" width="20" height="20" as="geometry"/>
                </mxCell>
                <mxCell id="2-wzv9BpQLtiMccoWj1_-0" value="いいね！" style="strokeWidth=1;shadow=0;dashed=0;align=center;html=1;shape=mxgraph.mockup.buttons.button;strokeColor=#d6b656;mainText=;buttonStyle=round;fontSize=9;fontStyle=1;fillColor=#fff2cc;whiteSpace=wrap;" vertex="1" parent="dZ1eXoiCUFKYRf-jwyLt-1">
                    <mxGeometry x="190" y="235" width="50" height="15" as="geometry"/>
                </mxCell>
                <mxCell id="2-wzv9BpQLtiMccoWj1_-1" value="いいね！" style="strokeWidth=1;shadow=0;dashed=0;align=center;html=1;shape=mxgraph.mockup.buttons.button;strokeColor=#d6b656;mainText=;buttonStyle=round;fontSize=9;fontStyle=1;fillColor=#fff2cc;whiteSpace=wrap;" vertex="1" parent="dZ1eXoiCUFKYRf-jwyLt-1">
                    <mxGeometry x="190" y="315" width="50" height="15" as="geometry"/>
                </mxCell>
                <mxCell id="2-wzv9BpQLtiMccoWj1_-2" value="いいね！" style="strokeWidth=1;shadow=0;dashed=0;align=center;html=1;shape=mxgraph.mockup.buttons.button;strokeColor=#d6b656;mainText=;buttonStyle=round;fontSize=9;fontStyle=1;fillColor=#fff2cc;whiteSpace=wrap;" vertex="1" parent="dZ1eXoiCUFKYRf-jwyLt-1">
                    <mxGeometry x="190" y="392.5" width="50" height="15" as="geometry"/>
                </mxCell>
                <mxCell id="2-wzv9BpQLtiMccoWj1_-5" value="" style="aspect=fixed;html=1;points=[];align=center;image;fontSize=12;image=img/lib/azure2/general/Heart.svg;" vertex="1" parent="dZ1eXoiCUFKYRf-jwyLt-1">
                    <mxGeometry x="339.33" y="235" width="18.66" height="17.5" as="geometry"/>
                </mxCell>
                <mxCell id="2-wzv9BpQLtiMccoWj1_-6" value="0" style="text;html=1;strokeColor=none;fillColor=none;align=center;verticalAlign=middle;whiteSpace=wrap;rounded=0;fontSize=16;" vertex="1" parent="dZ1eXoiCUFKYRf-jwyLt-1">
                    <mxGeometry x="360" y="232.5" width="20" height="20" as="geometry"/>
                </mxCell>
                <mxCell id="2-wzv9BpQLtiMccoWj1_-7" value="" style="aspect=fixed;html=1;points=[];align=center;image;fontSize=12;image=img/lib/azure2/general/Heart.svg;" vertex="1" parent="dZ1eXoiCUFKYRf-jwyLt-1">
                    <mxGeometry x="339.33" y="312.5" width="18.66" height="17.5" as="geometry"/>
                </mxCell>
                <mxCell id="2-wzv9BpQLtiMccoWj1_-8" value="5" style="text;html=1;strokeColor=none;fillColor=none;align=center;verticalAlign=middle;whiteSpace=wrap;rounded=0;fontSize=16;" vertex="1" parent="dZ1eXoiCUFKYRf-jwyLt-1">
                    <mxGeometry x="360" y="310" width="20" height="20" as="geometry"/>
                </mxCell>
                <mxCell id="2-wzv9BpQLtiMccoWj1_-9" value="" style="aspect=fixed;html=1;points=[];align=center;image;fontSize=12;image=img/lib/azure2/general/Heart.svg;" vertex="1" parent="dZ1eXoiCUFKYRf-jwyLt-1">
                    <mxGeometry x="339.33" y="392.5" width="18.66" height="17.5" as="geometry"/>
                </mxCell>
                <mxCell id="2-wzv9BpQLtiMccoWj1_-10" value="2" style="text;html=1;strokeColor=none;fillColor=none;align=center;verticalAlign=middle;whiteSpace=wrap;rounded=0;fontSize=16;" vertex="1" parent="dZ1eXoiCUFKYRf-jwyLt-1">
                    <mxGeometry x="360" y="390" width="20" height="20" as="geometry"/>
                </mxCell>
            </root>
        </mxGraphModel>
    </diagram>
</mxfile>